<svg xmlns="http://www.w3.org/2000/svg" viewBox="0 0 1200 1050" font-family="Segoe UI, Arial, sans-serif" font-size="12">
  <defs>
    <marker id="arrow" markerWidth="10" markerHeight="7" refX="9" refY="3.5" orient="auto">
      <polygon points="0 0, 10 3.5, 0 7" fill="#4a5568"/>
    </marker>
    <marker id="arrow-opt" markerWidth="10" markerHeight="7" refX="9" refY="3.5" orient="auto">
      <polygon points="0 0, 10 3.5, 0 7" fill="#a0aec0"/>
    </marker>
  </defs>

  <!-- Background -->
  <rect width="1200" height="1050" fill="#f8f9fa" rx="8"/>

  <!-- Title -->
  <text x="600" y="36" text-anchor="middle" font-size="18" font-weight="bold" fill="#1a202c">Innkrevingsoppdrag – Informasjonsmodell</text>

  <!-- Legend -->
  <rect x="870" y="800" width="300" height="90" fill="white" stroke="#e2e8f0" stroke-width="1.5" rx="6"/>
  <text x="882" y="818" font-size="11" font-weight="bold" fill="#4a5568">Tegnforklaring</text>
  <line x1="882" y1="830" x2="922" y2="830" stroke="#4a5568" stroke-width="1.8" marker-end="url(#arrow)"/>
  <text x="930" y="834" font-size="11" fill="#4a5568">Påkrevd relasjon</text>
  <line x1="882" y1="850" x2="922" y2="850" stroke="#a0aec0" stroke-width="1.8" stroke-dasharray="5,3" marker-end="url(#arrow-opt)"/>
  <text x="930" y="854" font-size="11" fill="#718096">Valgfri relasjon</text>
  <rect x="882" y="865" width="12" height="12" fill="#ebf8ff" stroke="#3182ce" stroke-width="1.2" rx="2"/>
  <text x="900" y="875" font-size="11" fill="#4a5568">Forespørsel-objekt</text>

  <!-- ============================================================ -->
  <!-- OpprettInnkrevingsoppdragRequest (root – center top) -->
  <!-- ============================================================ -->
  <rect x="370" y="55" width="295" height="275" fill="#ebf8ff" stroke="#3182ce" stroke-width="1.8" rx="6"/>
  <!-- Header bar -->
  <rect x="370" y="55" width="295" height="28" fill="#3182ce" rx="6"/>
  <rect x="370" y="69" width="295" height="14" fill="#3182ce"/>
  <text x="517" y="74" text-anchor="middle" font-size="12" font-weight="bold" fill="white">OpprettInnkrevingsoppdragRequest</text>

  <text x="382" y="98"  fill="#2d3748">kravtype</text>
  <text x="658" y="98"  text-anchor="end" fill="#718096" font-style="italic">enum [Ja]</text>
  <text x="382" y="116" fill="#2d3748">skyldner</text>
  <text x="658" y="116" text-anchor="end" fill="#718096" font-style="italic">Skyldner [Ja]</text>
  <text x="382" y="134" fill="#2d3748">hovedstol</text>
  <text x="658" y="134" text-anchor="end" fill="#718096" font-style="italic">HovedstolBeloep [Ja]</text>
  <text x="382" y="152" fill="#2d3748">renteBeloep</text>
  <text x="658" y="152" text-anchor="end" fill="#718096" font-style="italic">RenteBeloep[] [Nei]</text>
  <text x="382" y="170" fill="#2d3748">oppdragsgiversReferanse</text>
  <text x="658" y="170" text-anchor="end" fill="#718096" font-style="italic">string [Ja]</text>
  <text x="382" y="188" fill="#2d3748">oppdragsgiversKravidentifikator</text>
  <text x="658" y="188" text-anchor="end" fill="#718096" font-style="italic">string [Nei]</text>
  <text x="382" y="206" fill="#2d3748">fastsettelsesdato</text>
  <text x="658" y="206" text-anchor="end" fill="#718096" font-style="italic">date [Ja]</text>
  <text x="382" y="224" fill="#2d3748">foreldelsesfristensUtgangspunkt</text>
  <text x="658" y="224" text-anchor="end" fill="#718096" font-style="italic">date [Nei]</text>
  <text x="382" y="242" fill="#2d3748">tilleggsfristEtterForeldelsesloven</text>
  <text x="658" y="242" text-anchor="end" fill="#718096" font-style="italic">date [Nei]</text>
  <text x="382" y="260" fill="#2d3748">tilleggsinformasjon</text>
  <text x="658" y="260" text-anchor="end" fill="#718096" font-style="italic">Tilleggsinformasjon [Nei]</text>
  <!-- divider lines -->
  <line x1="370" y1="106" x2="665" y2="106" stroke="#bee3f8" stroke-width="1"/>
  <line x1="370" y1="124" x2="665" y2="124" stroke="#bee3f8" stroke-width="1"/>
  <line x1="370" y1="142" x2="665" y2="142" stroke="#bee3f8" stroke-width="1"/>
  <line x1="370" y1="160" x2="665" y2="160" stroke="#bee3f8" stroke-width="1"/>
  <line x1="370" y1="178" x2="665" y2="178" stroke="#bee3f8" stroke-width="1"/>
  <line x1="370" y1="196" x2="665" y2="196" stroke="#bee3f8" stroke-width="1"/>
  <line x1="370" y1="214" x2="665" y2="214" stroke="#bee3f8" stroke-width="1"/>
  <line x1="370" y1="232" x2="665" y2="232" stroke="#bee3f8" stroke-width="1"/>
  <line x1="370" y1="250" x2="665" y2="250" stroke="#bee3f8" stroke-width="1"/>

  <!-- ============================================================ -->
  <!-- Skyldner (left column, top) -->
  <!-- ============================================================ -->
  <rect x="50" y="55" width="240" height="98" fill="#ebf8ff" stroke="#3182ce" stroke-width="1.8" rx="6"/>
  <rect x="50" y="55" width="240" height="28" fill="#3182ce" rx="6"/>
  <rect x="50" y="69" width="240" height="14" fill="#3182ce"/>
  <text x="170" y="74" text-anchor="middle" font-size="12" font-weight="bold" fill="white">Skyldner</text>
  <text x="62"  y="98"  fill="#2d3748">identifikatortype</text>
  <text x="282" y="98"  text-anchor="end" fill="#718096" font-style="italic">enum [Ja]</text>
  <line x1="50" y1="106" x2="290" y2="106" stroke="#bee3f8" stroke-width="1"/>
  <text x="62"  y="125" fill="#2d3748">identifikator</text>
  <text x="282" y="125" text-anchor="end" fill="#718096" font-style="italic">string [Ja]</text>
  <!-- arrow from OpprettInnkrevingsoppdragRequest to Skyldner -->
  <line x1="370" y1="116" x2="293" y2="108" stroke="#4a5568" stroke-width="1.6" marker-end="url(#arrow)"/>

  <!-- ============================================================ -->
  <!-- HovedstolBeloep (left column, below Skyldner) -->
  <!-- ============================================================ -->
  <rect x="50" y="190" width="240" height="98" fill="#ebf8ff" stroke="#3182ce" stroke-width="1.8" rx="6"/>
  <rect x="50" y="190" width="240" height="28" fill="#3182ce" rx="6"/>
  <rect x="50" y="204" width="240" height="14" fill="#3182ce"/>
  <text x="170" y="209" text-anchor="middle" font-size="12" font-weight="bold" fill="white">HovedstolBeloep</text>
  <text x="62"  y="232" fill="#2d3748">valuta</text>
  <text x="282" y="232" text-anchor="end" fill="#718096" font-style="italic">enum [Ja]</text>
  <line x1="50" y1="240" x2="290" y2="240" stroke="#bee3f8" stroke-width="1"/>
  <text x="62"  y="258" fill="#2d3748">beloep</text>
  <text x="282" y="258" text-anchor="end" fill="#718096" font-style="italic">integer [Ja]</text>
  <!-- arrow from OpprettInnkrevingsoppdragRequest to HovedstolBeloep -->
  <line x1="370" y1="134" x2="293" y2="225" stroke="#4a5568" stroke-width="1.6" marker-end="url(#arrow)"/>

  <!-- ============================================================ -->
  <!-- RenteBeloep (left column, below HovedstolBeloep) -->
  <!-- ============================================================ -->
  <rect x="50" y="330" width="240" height="133" fill="#ebf8ff" stroke="#3182ce" stroke-width="1.8" rx="6"/>
  <rect x="50" y="330" width="240" height="28" fill="#3182ce" rx="6"/>
  <rect x="50" y="344" width="240" height="14" fill="#3182ce"/>
  <text x="170" y="349" text-anchor="middle" font-size="12" font-weight="bold" fill="white">RenteBeloep</text>
  <text x="62"  y="372" fill="#2d3748">valuta</text>
  <text x="282" y="372" text-anchor="end" fill="#718096" font-style="italic">enum [Ja]</text>
  <line x1="50" y1="380" x2="290" y2="380" stroke="#bee3f8" stroke-width="1"/>
  <text x="62"  y="398" fill="#2d3748">beloep</text>
  <text x="282" y="398" text-anchor="end" fill="#718096" font-style="italic">integer [Ja]</text>
  <line x1="50" y1="406" x2="290" y2="406" stroke="#bee3f8" stroke-width="1"/>
  <text x="62"  y="424" fill="#2d3748">renterIlagtDato</text>
  <text x="282" y="424" text-anchor="end" fill="#718096" font-style="italic">date [Nei]</text>
  <line x1="50" y1="432" x2="290" y2="432" stroke="#bee3f8" stroke-width="1"/>
  <text x="62"  y="450" fill="#2d3748">rentetype</text>
  <text x="282" y="450" text-anchor="end" fill="#718096" font-style="italic">enum [Ja]</text>
  <!-- dashed arrow (optional) from OpprettInnkrevingsoppdragRequest to RenteBeloep -->
  <line x1="370" y1="152" x2="293" y2="370" stroke="#a0aec0" stroke-width="1.6" stroke-dasharray="5,3" marker-end="url(#arrow-opt)"/>

  <!-- ============================================================ -->
  <!-- TilleggsinformasjonNav (right, top) -->
  <!-- ============================================================ -->
  <rect x="760" y="55" width="260" height="115" fill="#f0fff4" stroke="#38a169" stroke-width="1.8" rx="6"/>
  <rect x="760" y="55" width="260" height="28" fill="#38a169" rx="6"/>
  <rect x="760" y="69" width="260" height="14" fill="#38a169"/>
  <text x="890" y="74" text-anchor="middle" font-size="12" font-weight="bold" fill="white">TilleggsinformasjonNav</text>
  <text x="772" y="98"  fill="#2d3748">tilbakekrevingsperiode</text>
  <text x="1012" y="98"  text-anchor="end" fill="#718096" font-style="italic">Periode [Ja]</text>
  <line x1="760" y1="106" x2="1020" y2="106" stroke="#c6f6d5" stroke-width="1"/>
  <text x="772" y="125" fill="#2d3748">ytelserForAvregning</text>
  <text x="1012" y="125" text-anchor="end" fill="#718096" font-style="italic">YtelseBeloep [Nei]</text>
  <line x1="760" y1="133" x2="1020" y2="133" stroke="#c6f6d5" stroke-width="1"/>
  <text x="772" y="152" fill="#718096" font-size="10" font-style="italic">Kun for NAV</text>
  <!-- dashed arrow from OpprettInnkrevingsoppdragRequest to TilleggsinformasjonNav -->
  <line x1="665" y1="260" x2="757" y2="112" stroke="#a0aec0" stroke-width="1.6" stroke-dasharray="5,3" marker-end="url(#arrow-opt)"/>

  <!-- ============================================================ -->
  <!-- Tilbakekrevingsperiode (right, below Nav) -->
  <!-- ============================================================ -->
  <rect x="760" y="215" width="260" height="98" fill="#f0fff4" stroke="#38a169" stroke-width="1.8" rx="6"/>
  <rect x="760" y="215" width="260" height="28" fill="#38a169" rx="6"/>
  <rect x="760" y="229" width="260" height="14" fill="#38a169"/>
  <text x="890" y="234" text-anchor="middle" font-size="12" font-weight="bold" fill="white">Tilbakekrevingsperiode</text>
  <text x="772" y="257" fill="#2d3748">fraDato</text>
  <text x="1012" y="257" text-anchor="end" fill="#718096" font-style="italic">date [Ja]</text>
  <line x1="760" y1="265" x2="1020" y2="265" stroke="#c6f6d5" stroke-width="1"/>
  <text x="772" y="284" fill="#2d3748">tilDato</text>
  <text x="1012" y="284" text-anchor="end" fill="#718096" font-style="italic">date [Ja]</text>
  <!-- arrow from TilleggsinformasjonNav to Tilbakekrevingsperiode -->
  <line x1="890" y1="170" x2="890" y2="212" stroke="#4a5568" stroke-width="1.6" marker-end="url(#arrow)"/>

  <!-- ============================================================ -->
  <!-- YtelseForAvregningBeloep (right, below Tilbakekrevingsperiode) -->
  <!-- ============================================================ -->
  <rect x="760" y="355" width="260" height="98" fill="#f0fff4" stroke="#38a169" stroke-width="1.8" rx="6"/>
  <rect x="760" y="355" width="260" height="28" fill="#38a169" rx="6"/>
  <rect x="760" y="369" width="260" height="14" fill="#38a169"/>
  <text x="890" y="374" text-anchor="middle" font-size="11" font-weight="bold" fill="white">YtelseForAvregningBeloep</text>
  <text x="772" y="397" fill="#2d3748">valuta</text>
  <text x="1012" y="397" text-anchor="end" fill="#718096" font-style="italic">enum [Ja]</text>
  <line x1="760" y1="405" x2="1020" y2="405" stroke="#c6f6d5" stroke-width="1"/>
  <text x="772" y="424" fill="#2d3748">beloep</text>
  <text x="1012" y="424" text-anchor="end" fill="#718096" font-style="italic">integer [Ja]</text>
  <!-- dashed arrow from TilleggsinformasjonNav to YtelseForAvregningBeloep -->
  <line x1="890" y1="173" x2="1080" y2="173" stroke="#a0aec0" stroke-width="1.6" stroke-dasharray="5,3"/>
  <line x1="1080" y1="173" x2="1080" y2="404" stroke="#a0aec0" stroke-width="1.6" stroke-dasharray="5,3"/>
  <line x1="1080" y1="404" x2="1023" y2="404" stroke="#a0aec0" stroke-width="1.6" stroke-dasharray="5,3" marker-end="url(#arrow-opt)"/>

  <!-- ============================================================ -->
  <!-- TilleggsinformasjonBroennoeysundRegistrene (right, below above) -->
  <!-- ============================================================ -->
  <rect x="760" y="500" width="260" height="115" fill="#fffaf0" stroke="#dd6b20" stroke-width="1.8" rx="6"/>
  <rect x="760" y="500" width="260" height="28" fill="#dd6b20" rx="6"/>
  <rect x="760" y="514" width="260" height="14" fill="#dd6b20"/>
  <text x="890" y="519" text-anchor="middle" font-size="11" font-weight="bold" fill="white">TilleggsinformasjonBReg</text>
  <text x="772" y="543" fill="#2d3748">periode</text>
  <text x="1012" y="543" text-anchor="end" fill="#718096" font-style="italic">PeriodeMedMulkt [Ja]</text>
  <line x1="760" y1="551" x2="1020" y2="551" stroke="#feebc8" stroke-width="1"/>
  <text x="772" y="570" fill="#2d3748">stoppdatoForLøpendeMulkt</text>
  <text x="1012" y="570" text-anchor="end" fill="#718096" font-style="italic">date [Nei]</text>
  <line x1="760" y1="578" x2="1020" y2="578" stroke="#feebc8" stroke-width="1"/>
  <text x="772" y="597" fill="#718096" font-size="10" font-style="italic">Kun for Brønnøysundregistrene</text>
  <!-- dashed arrow from OpprettInnkrevingsoppdragRequest to TilleggsinformasjonBReg -->
  <line x1="665" y1="260" x2="757" y2="535" stroke="#a0aec0" stroke-width="1.6" stroke-dasharray="5,3" marker-end="url(#arrow-opt)"/>

  <!-- ============================================================ -->
  <!-- PeriodeMedTvangsmulkt (right, below BReg) -->
  <!-- ============================================================ -->
  <rect x="760" y="660" width="260" height="98" fill="#fffaf0" stroke="#dd6b20" stroke-width="1.8" rx="6"/>
  <rect x="760" y="660" width="260" height="28" fill="#dd6b20" rx="6"/>
  <rect x="760" y="674" width="260" height="14" fill="#dd6b20"/>
  <text x="890" y="679" text-anchor="middle" font-size="12" font-weight="bold" fill="white">PeriodeMedTvangsmulkt</text>
  <text x="772" y="702" fill="#2d3748">fraDato</text>
  <text x="1012" y="702" text-anchor="end" fill="#718096" font-style="italic">date [Ja]</text>
  <line x1="760" y1="710" x2="1020" y2="710" stroke="#feebc8" stroke-width="1"/>
  <text x="772" y="729" fill="#2d3748">tilDato</text>
  <text x="1012" y="729" text-anchor="end" fill="#718096" font-style="italic">date [Ja]</text>
  <!-- arrow from TilleggsinformasjonBReg to PeriodeMedTvangsmulkt -->
  <line x1="890" y1="615" x2="890" y2="657" stroke="#4a5568" stroke-width="1.6" marker-end="url(#arrow)"/>

  <!-- ============================================================ -->
  <!-- RESPONSE SECTION separator line -->
  <!-- ============================================================ -->
  <line x1="30" y1="510" x2="680" y2="510" stroke="#cbd5e0" stroke-width="1.5" stroke-dasharray="8,4"/>
  <text x="355" y="505" text-anchor="middle" font-size="11" fill="#718096" font-style="italic">Respons-objekter</text>

  <!-- ============================================================ -->
  <!-- OpprettInnkrevingsoppdragResponse -->
  <!-- ============================================================ -->
  <rect x="50" y="520" width="240" height="80" fill="#faf5ff" stroke="#805ad5" stroke-width="1.8" rx="6"/>
  <rect x="50" y="520" width="240" height="28" fill="#805ad5" rx="6"/>
  <rect x="50" y="534" width="240" height="14" fill="#805ad5"/>
  <text x="170" y="539" text-anchor="middle" font-size="11" font-weight="bold" fill="white">OpprettInnkrevingsoppdragResponse</text>
  <text x="62"  y="562" fill="#2d3748">kravidentifikator</text>
  <text x="282" y="562" text-anchor="end" fill="#718096" font-style="italic">string [Ja]</text>

  <!-- ============================================================ -->
  <!-- MottaksstatusResponse -->
  <!-- ============================================================ -->
  <rect x="50" y="625" width="240" height="133" fill="#faf5ff" stroke="#805ad5" stroke-width="1.8" rx="6"/>
  <rect x="50" y="625" width="240" height="28" fill="#805ad5" rx="6"/>
  <rect x="50" y="639" width="240" height="14" fill="#805ad5"/>
  <text x="170" y="644" text-anchor="middle" font-size="12" font-weight="bold" fill="white">MottaksstatusResponse</text>
  <text x="62"  y="667" fill="#2d3748">kravidentifikator</text>
  <text x="282" y="667" text-anchor="end" fill="#718096" font-style="italic">string [Ja]</text>
  <line x1="50" y1="675" x2="290" y2="675" stroke="#e9d8fd" stroke-width="1"/>
  <text x="62"  y="693" fill="#2d3748">oppdragsgiversKravident.</text>
  <text x="282" y="693" text-anchor="end" fill="#718096" font-style="italic">string [Nei]</text>
  <line x1="50" y1="701" x2="290" y2="701" stroke="#e9d8fd" stroke-width="1"/>
  <text x="62"  y="719" fill="#2d3748">mottaksstatus</text>
  <text x="282" y="719" text-anchor="end" fill="#718096" font-style="italic">enum [Ja]</text>
  <line x1="50" y1="727" x2="290" y2="727" stroke="#e9d8fd" stroke-width="1"/>
  <text x="62"  y="745" fill="#2d3748">statusOppdatert</text>
  <text x="282" y="745" text-anchor="end" fill="#718096" font-style="italic">date-time [Ja]</text>

  <!-- ============================================================ -->
  <!-- MottakskvitteringEndring -->
  <!-- ============================================================ -->
  <rect x="350" y="520" width="240" height="80" fill="#faf5ff" stroke="#805ad5" stroke-width="1.8" rx="6"/>
  <rect x="350" y="520" width="240" height="28" fill="#805ad5" rx="6"/>
  <rect x="350" y="534" width="240" height="14" fill="#805ad5"/>
  <text x="470" y="539" text-anchor="middle" font-size="12" font-weight="bold" fill="white">MottakskvitteringEndring</text>
  <text x="362"  y="562" fill="#2d3748">transaksjonsid</text>
  <text x="582" y="562" text-anchor="end" fill="#718096" font-style="italic">UUID [Ja]</text>

  <!-- ============================================================ -->
  <!-- ValideringsfeilResponse -->
  <!-- ============================================================ -->
  <rect x="350" y="625" width="240" height="80" fill="#faf5ff" stroke="#805ad5" stroke-width="1.8" rx="6"/>
  <rect x="350" y="625" width="240" height="28" fill="#805ad5" rx="6"/>
  <rect x="350" y="639" width="240" height="14" fill="#805ad5"/>
  <text x="470" y="644" text-anchor="middle" font-size="12" font-weight="bold" fill="white">ValideringsfeilResponse</text>
  <text x="362"  y="667" fill="#2d3748">valideringsfeil</text>
  <text x="582" y="667" text-anchor="end" fill="#718096" font-style="italic">ValideringsfeilDTO[] [Ja]</text>

  <!-- ============================================================ -->
  <!-- ValideringsfeilDTO -->
  <!-- ============================================================ -->
  <rect x="350" y="730" width="240" height="98" fill="#faf5ff" stroke="#805ad5" stroke-width="1.8" rx="6"/>
  <rect x="350" y="730" width="240" height="28" fill="#805ad5" rx="6"/>
  <rect x="350" y="744" width="240" height="14" fill="#805ad5"/>
  <text x="470" y="749" text-anchor="middle" font-size="12" font-weight="bold" fill="white">ValideringsfeilDTO</text>
  <text x="362"  y="772" fill="#2d3748">error</text>
  <text x="582" y="772" text-anchor="end" fill="#718096" font-style="italic">string [Ja]</text>
  <line x1="350" y1="780" x2="590" y2="780" stroke="#e9d8fd" stroke-width="1"/>
  <text x="362"  y="798" fill="#2d3748">message</text>
  <text x="582" y="798" text-anchor="end" fill="#718096" font-style="italic">string [Ja]</text>
  <!-- arrow from ValideringsfeilResponse to ValideringsfeilDTO -->
  <line x1="470" y1="705" x2="470" y2="727" stroke="#4a5568" stroke-width="1.6" marker-end="url(#arrow)"/>

  <!-- ============================================================ -->
  <!-- Mottaksstatus enum label -->
  <!-- ============================================================ -->
  <rect x="50" y="850" width="530" height="90" fill="white" stroke="#e2e8f0" stroke-width="1.5" rx="6"/>
  <text x="62" y="868" font-size="11" font-weight="bold" fill="#4a5568">mottaksstatus (enum-verdier)</text>
  <text x="62" y="886" font-size="10.5" fill="#718096">MOTTATT_IKKE_BEHANDLET  |  MOTTATT_UNDER_BEHANDLING  |  VALIDERINGSFEIL</text>
  <text x="62" y="904" font-size="10.5" fill="#718096">RESKONTROFOERT  |  MIGRERT  |  SKAL_IKKE_RESKONTROFOERES</text>
  <text x="62" y="922" font-size="11" font-weight="bold" fill="#4a5568">kravidentifikatortype (AvskrivingRequest)</text>
  <text x="62" y="937" font-size="10.5" fill="#718096">SKATTEETATENS_KRAVIDENTIFIKATOR  |  OPPDRAGSGIVERS_KRAVIDENTIFIKATOR</text>

  <!-- ============================================================ -->
  <!-- AvskrivingRequest -->
  <!-- ============================================================ -->
  <rect x="620" y="800" width="240" height="98" fill="#faf5ff" stroke="#805ad5" stroke-width="1.8" rx="6"/>
  <rect x="620" y="800" width="240" height="28" fill="#805ad5" rx="6"/>
  <rect x="620" y="814" width="240" height="14" fill="#805ad5"/>
  <text x="740" y="819" text-anchor="middle" font-size="12" font-weight="bold" fill="white">AvskrivingRequest</text>
  <text x="632"  y="842" fill="#2d3748">kravidentifikatortype</text>
  <text x="852" y="842" text-anchor="end" fill="#718096" font-style="italic">enum [Ja]</text>
  <line x1="620" y1="850" x2="860" y2="850" stroke="#e9d8fd" stroke-width="1"/>
  <text x="632"  y="868" fill="#2d3748">kravidentifikator</text>
  <text x="852" y="868" text-anchor="end" fill="#718096" font-style="italic">string [Ja]</text>

  <!-- ============================================================ -->
  <!-- Footer note -->
  <!-- ============================================================ -->
  <text x="600" y="1038" text-anchor="middle" font-size="10" fill="#a0aec0">Skatteetaten – Innkrevingsoppdrag API informasjonsmodell  ·  [Ja] = påkrevd  ·  [Nei] = valgfritt</text>
</svg>

